<?xml version="1.0" standalone="no"?>
<!DOCTYPE svg PUBLIC "-//W3C//DTD SVG 20010904//EN"
 "http://www.w3.org/TR/2001/REC-SVG-20010904/DTD/svg10.dtd">
<svg version="1.0" xmlns="http://www.w3.org/2000/svg"
 width="20.000000pt" height="20.000000pt" viewBox="0 0 20.000000 20.000000"
 preserveAspectRatio="xMidYMid meet">

<g transform="translate(0.000000,20.000000) scale(0.100000,-0.100000)"
fill="#a0a1a5" stroke="none">
<path d="M4 187 c-2 -8 -4 -52 -2 -98 l3 -84 95 0 95 0 0 95 0 95 -93 3 c-71
2 -94 0 -98 -11z m81 -87 c0 -18 -6 -26 -23 -28 -24 -4 -38 18 -28 44 3 9 15
14 28 12 17 -2 23 -10 23 -28z m80 0 c0 -18 -6 -26 -23 -28 -13 -2 -25 3 -28
12 -10 26 4 48 28 44 17 -2 23 -10 23 -28z"/>
</g>
</svg>
