<?xml version="1.0" standalone="no"?>
<!DOCTYPE svg PUBLIC "-//W3C//DTD SVG 20010904//EN"
 "http://www.w3.org/TR/2001/REC-SVG-20010904/DTD/svg10.dtd">
<svg version="1.0" xmlns="http://www.w3.org/2000/svg"
 width="20.000000pt" height="20.000000pt" viewBox="0 0 20.000000 20.000000"
 preserveAspectRatio="xMidYMid meet">

<g transform="translate(0.000000,20.000000) scale(0.100000,-0.100000)"
fill="#a0a1a5" stroke="none">
<path d="M4 187 c-2 -8 -4 -52 -2 -98 l3 -84 98 -3 98 -3 -3 98 -3 98 -93 3
c-71 2 -94 0 -98 -11z m94 -94 c3 -18 6 -20 16 -10 8 6 11 18 9 24 -3 8 3 13
16 13 13 0 19 -5 15 -14 -3 -8 -1 -17 5 -21 17 -10 13 -45 -5 -52 -9 -3 -25
-1 -35 5 -11 7 -20 8 -24 2 -3 -6 -19 -10 -36 -10 -28 0 -29 2 -29 46 0 45 0
45 33 42 24 -2 33 -8 35 -25z"/>
<path d="M55 90 c4 -6 11 -8 16 -5 14 9 11 15 -7 15 -8 0 -12 -5 -9 -10z"/>
<path d="M50 60 c0 -5 7 -10 15 -10 8 0 15 5 15 10 0 6 -7 10 -15 10 -8 0 -15
-4 -15 -10z"/>
<path d="M138 53 c7 -3 16 -2 19 1 4 3 -2 6 -13 5 -11 0 -14 -3 -6 -6z"/>
</g>
</svg>
