<?xml version="1.0" standalone="no"?>
<!DOCTYPE svg PUBLIC "-//W3C//DTD SVG 20010904//EN"
 "http://www.w3.org/TR/2001/REC-SVG-20010904/DTD/svg10.dtd">
<svg version="1.0" xmlns="http://www.w3.org/2000/svg"
 width="25.000000pt" height="20.000000pt" viewBox="0 0 25.000000 20.000000"
 preserveAspectRatio="xMidYMid meet">

<g transform="translate(0.000000,20.000000) scale(0.100000,-0.100000)"
fill="#a0a1a5" stroke="none">
<path  d="M136 185 c-9 -9 -16 -23 -16 -31 0 -21 -23 -17 -64 11 -20 14 -39 25
-42 25 -2 0 -4 -17 -3 -37 2 -43 25 -103 39 -103 6 0 10 -4 10 -10 0 -5 -9
-10 -19 -10 -26 0 -35 -16 -15 -24 9 -3 35 -6 58 -6 61 0 106 33 129 95 11 28
23 57 27 66 12 24 0 34 -46 37 -28 2 -47 -2 -58 -13z"/>
</g>
</svg>
