<?xml version="1.0" standalone="no"?>
<!DOCTYPE svg PUBLIC "-//W3C//DTD SVG 20010904//EN"
 "http://www.w3.org/TR/2001/REC-SVG-20010904/DTD/svg10.dtd">
<svg version="1.0" xmlns="http://www.w3.org/2000/svg"
 width="20.000000pt" height="19.000000pt" viewBox="0 0 20.000000 19.000000"
 preserveAspectRatio="xMidYMid meet">

<g transform="translate(0.000000,19.000000) scale(0.100000,-0.100000)"
fill="#a0a1a5" stroke="none">
<path d="M48 174 c-75 -40 -58 -149 26 -170 111 -28 177 119 76 171 -36 19
-67 19 -102 -1z m99 -21 c6 -16 -27 -25 -43 -12 -8 6 -14 17 -14 24 0 16 52 5
57 -12z m-69 -5 c19 -19 15 -26 -19 -33 -37 -8 -44 -3 -29 24 12 24 30 27 48
9z m102 -34 c0 -9 -11 -14 -30 -14 -36 0 -39 13 -7 27 25 12 37 8 37 -13z
m-106 -36 c-36 -29 -48 -29 -52 -1 -3 19 2 22 35 25 50 4 51 2 17 -24z m103
-3 c2 -6 -3 -20 -11 -30 -14 -20 -15 -19 -24 5 -5 14 -8 29 -5 33 6 11 35 5
40 -8z m-53 -17 c3 -13 6 -26 6 -29 0 -14 -31 -18 -58 -8 l-27 11 28 24 c35
30 43 30 51 2z"/>
</g>
</svg>
