<?xml version="1.0" standalone="no"?>
<!DOCTYPE svg PUBLIC "-//W3C//DTD SVG 20010904//EN"
 "http://www.w3.org/TR/2001/REC-SVG-20010904/DTD/svg10.dtd">
<svg version="1.0" xmlns="http://www.w3.org/2000/svg"
 width="165.000000pt" height="20.000000pt" viewBox="0 0 165.000000 20.000000"
 preserveAspectRatio="xMidYMid meet">

<g transform="translate(0.000000,20.000000) scale(0.100000,-0.100000)"
fill="#000000" stroke="none">
<path d="M0 100 l0 -101 48 3 c47 3 47 3 50 42 2 21 -1 43 -7 49 -7 7 -7 14 0
23 6 7 9 28 7 46 -3 32 -5 33 -50 36 l-48 3 0 -101z m68 48 c-5 -34 -38 -37
-38 -4 0 20 5 26 21 26 15 0 20 -5 17 -22z m0 -91 c3 -22 -1 -27 -17 -27 -17
0 -21 6 -21 31 0 24 4 30 18 27 10 -2 18 -14 20 -31z"/>
<path d="M150 100 l0 -100 40 0 c29 0 40 4 40 15 0 9 -9 15 -25 15 -25 0 -25
1 -25 85 0 69 -3 85 -15 85 -12 0 -15 -18 -15 -100z"/>
<path d="M294 163 c-3 -21 -12 -66 -19 -100 -11 -55 -11 -63 2 -63 8 0 17 9
20 20 3 11 12 20 20 20 8 0 17 -9 20 -20 6 -22 33 -28 33 -7 -1 6 -9 50 -18
97 -13 62 -22 86 -34 88 -13 2 -19 -7 -24 -35z m33 -100 c-14 -13 -23 9 -18
44 l4 38 10 -38 c5 -21 7 -41 4 -44z"/>
<path d="M414 187 c-3 -8 -4 -52 -2 -98 l3 -84 48 -3 47 -3 0 35 c0 25 -4 36
-15 36 -8 0 -15 -9 -15 -20 0 -11 -7 -20 -15 -20 -12 0 -15 14 -15 70 0 53 3
70 14 70 7 0 16 -9 19 -20 8 -33 27 -23 27 15 0 35 0 35 -45 35 -29 0 -48 -5
-51 -13z"/>
<path d="M560 100 c0 -82 3 -100 15 -100 11 0 15 12 16 43 l1 42 19 -42 c11
-24 26 -43 34 -43 19 0 19 -1 -5 56 -12 26 -19 52 -16 58 2 6 11 28 20 49 15
35 15 37 -1 37 -11 0 -24 -15 -35 -38 l-16 -37 -1 38 c-1 26 -6 37 -16 37 -12
0 -15 -18 -15 -100z"/>
<path d="M787 194 c-11 -11 -8 -72 3 -79 8 -5 8 -11 0 -20 -6 -8 -10 -31 -8
-52 3 -38 3 -38 51 -41 l47 -3 0 38 c0 21 3 48 6 60 5 19 2 22 -33 25 -31 2
-39 7 -41 26 -3 17 2 22 17 22 12 0 21 -6 21 -15 0 -8 7 -15 16 -15 11 0 14 8
12 28 -3 24 -8 27 -43 30 -23 2 -44 0 -48 -4z m63 -134 c0 -23 -4 -30 -20 -30
-14 0 -20 7 -20 23 0 27 7 37 27 37 8 0 13 -12 13 -30z"/>
<path d="M1010 194 c0 -10 21 -149 26 -171 9 -42 32 -26 42 29 l9 53 8 -53 c6
-39 12 -52 24 -52 14 0 20 17 29 89 15 110 15 111 -2 111 -9 0 -16 -19 -21
-57 -8 -63 -10 -62 -20 10 -9 67 -31 62 -40 -10 -8 -63 -10 -62 -20 10 -4 31
-11 47 -21 47 -8 0 -14 -3 -14 -6z"/>
<path d="M1210 100 c0 -82 3 -100 15 -100 11 0 15 12 15 45 0 38 3 45 20 45
17 0 20 -7 20 -45 0 -33 4 -45 15 -45 12 0 15 18 15 100 0 82 -3 100 -15 100
-11 0 -15 -11 -15 -40 0 -33 -3 -40 -20 -40 -17 0 -20 7 -20 40 0 29 -4 40
-15 40 -12 0 -15 -18 -15 -100z"/>
<path d="M1360 100 c0 -82 3 -100 15 -100 12 0 15 18 15 100 0 82 -3 100 -15
100 -12 0 -15 -18 -15 -100z"/>
<path d="M1430 185 c0 -8 7 -15 15 -15 12 0 15 -16 15 -85 0 -69 3 -85 15 -85
12 0 15 16 15 84 0 75 2 84 20 89 39 10 20 27 -30 27 -38 0 -50 -4 -50 -15z"/>
<path d="M1570 100 l0 -100 40 0 c29 0 40 4 40 15 0 9 -9 15 -25 15 -21 0 -25
5 -25 30 0 23 4 30 20 30 11 0 20 7 20 15 0 8 -9 15 -20 15 -15 0 -20 7 -20
25 0 20 5 25 25 25 16 0 25 6 25 15 0 11 -11 15 -40 15 l-40 0 0 -100z"/>
</g>
</svg>
